<?xml version="1.0" encoding="utf-8"?>
<!-- Generator: Adobe Illustrator 16.0.0, SVG Export Plug-In . SVG Version: 6.00 Build 0)  -->
<!DOCTYPE svg PUBLIC "-//W3C//DTD SVG 1.1//EN" "http://www.w3.org/Graphics/SVG/1.1/DTD/svg11.dtd">
<svg version="1.1" id="Capa_1" xmlns="http://www.w3.org/2000/svg" xmlns:xlink="http://www.w3.org/1999/xlink" x="0px" y="0px"
	 width="993.129px" height="884.564px" viewBox="202.095 68.065 993.129 884.564"
	 enable-background="new 202.095 68.065 993.129 884.564" xml:space="preserve">
<path fill="none" stroke="#000000" stroke-miterlimit="10" d="M437.902,236.565c45.441,0.037,82.918,37.568,82.82,83.235
	c-0.109,47.818-39.791,83.858-83.38,82.819c-44.21,0.896-83.063-36.031-83.055-83.135C354.288,273.8,391.911,236.53,437.902,236.565
	z"/>
<path fill="none" stroke="#000000" stroke-miterlimit="10" d="M903.238,952.129V661.333c0-22.171-8.984-42.251-23.517-56.774
	c-14.725-14.733-35.156-23.764-57.692-23.51c-44.147,0.499-79.361,37.157-79.361,81.308v289.772"/>
<path fill="none" stroke="#000000" stroke-miterlimit="10" d="M1194.725,68.565H202.595v883.564H365.96
	c-0.006-0.219-0.017-0.438-0.017-0.658v-462.45c0-12.636,10.243-22.878,22.878-22.878h97.357c12.636,0,22.879,10.242,22.879,22.878
	v462.452c0,0.22-0.011,0.438-0.017,0.656h90.519v-476.49c0-5.247,4.254-9.498,9.498-9.498h121.467c5.246,0,9.498,4.254,9.498,9.498
	v50.981c0.011-0.022,0.492,0.041,1.304,0.163c2.347-4.245,4.903-8.357,7.663-12.317c25.314-36.33,67.4-60.099,115.038-60.099h24.97
	c87.074,0,157.659,70.587,157.659,157.658h-0.005v340.104h148.072V68.565z"/>
</svg>
