<?xml version="1.0" encoding="utf-8"?>
<!-- Generator: Adobe Illustrator 20.1.0, SVG Export Plug-In . SVG Version: 6.00 Build 0)  -->
<svg version="1.1" id="Capa_1" xmlns="http://www.w3.org/2000/svg" xmlns:xlink="http://www.w3.org/1999/xlink" x="0px" y="0px"
	 viewBox="0 0 189.1 170.8" style="enable-background:new 0 0 189.1 170.8;" xml:space="preserve">
<style type="text/css">
	.st0{fill:none;stroke:#000000;stroke-miterlimit:10;}
</style>
<path class="st0" d="M48,36.5c8.1,0,14.8,6.7,14.8,14.9c0,8.5-7.1,15-14.9,14.8c-7.9,0.2-14.8-6.4-14.8-14.8
	C33.1,43.2,39.8,36.5,48,36.5z"/>
<path class="st0" d="M131.1,164.3v-51.9c0-4-1.6-7.5-4.2-10.1c-2.6-2.6-6.3-4.2-10.3-4.2c-7.9,0.1-14.2,6.6-14.2,14.5v51.7"/>
<path class="st0" d="M183.1,6.5H6v157.7h29.2c0,0,0-0.1,0-0.1V81.6c0-2.3,1.8-4.1,4.1-4.1h17.4c2.3,0,4.1,1.8,4.1,4.1v82.6
	c0,0,0,0.1,0,0.1h16.2V79.2c0-0.9,0.8-1.7,1.7-1.7h21.7c0.9,0,1.7,0.8,1.7,1.7v9.1c0,0,0.1,0,0.2,0c0.4-0.8,0.9-1.5,1.4-2.2
	c4.5-6.5,12-10.7,20.5-10.7h4.5c15.5,0,28.1,12.6,28.1,28.1h0v60.7h26.4L183.1,6.5L183.1,6.5z"/>
</svg>
