<?xml version="1.0" encoding="utf-8"?>
<!-- Generator: Adobe Illustrator 20.1.0, SVG Export Plug-In . SVG Version: 6.00 Build 0)  -->
<svg version="1.1" id="Capa_1" xmlns="http://www.w3.org/2000/svg" xmlns:xlink="http://www.w3.org/1999/xlink" x="0px" y="0px"
	 viewBox="0 0 413.5 312.9" style="enable-background:new 0 0 413.5 312.9;" xml:space="preserve">
<style type="text/css">
	.st0{fill:#AFDD22;}
</style>
<polygon points="66.7,156.3 223.3,0 156.2,0.1 0,156.3 139.7,296 173.1,262.6 "/>
<polygon points="413.5,156.3 273.9,16.7 240.5,50.1 346.7,156.3 190.3,312.7 256.9,312.9 "/>
<polygon class="st0" points="311.6,157.3 223.7,157.3 223.7,180.8 254.2,180.8 223.7,211.2 241,227.8 "/>
<polygon class="st0" points="133.9,156.9 213.3,77.4 179.7,77.4 100.2,156.9 179.7,236.4 213.4,236.4 "/>
<g>
	<polygon class="st0" points="347.9,186.2 347.2,185.5 375.9,156.9 347.2,128.3 347.9,127.7 377.2,156.9 	"/>
</g>
<g>
	<polygon class="st0" points="60.2,186.2 31,156.9 60.3,127.7 60.9,128.3 32.2,156.9 60.9,185.5 	"/>
</g>
</svg>
