<?xml version="1.0" encoding="utf-8"?>
<!-- Generator: Adobe Illustrator 20.1.0, SVG Export Plug-In . SVG Version: 6.00 Build 0)  -->
<svg version="1.1" id="Capa_1" xmlns="http://www.w3.org/2000/svg" xmlns:xlink="http://www.w3.org/1999/xlink" x="0px" y="0px"
	 viewBox="0 0 415.3 360.6" style="enable-background:new 0 0 415.3 360.6;" xml:space="preserve">
<style type="text/css">
	.st0{fill:#FFFFFF;}
	.st1{fill:#AFDD22;}
</style>
<path class="st0" d="M175,350v9c-0.9,0.5-1.8,0.9-2.9,1.2c-1.1,0.3-2.2,0.4-3.4,0.4c-1.8,0-3.4-0.3-4.8-0.9
	c-1.4-0.6-2.6-1.4-3.6-2.4c-1-1-1.8-2.2-2.3-3.6c-0.5-1.4-0.8-2.8-0.8-4.4c0-1.7,0.3-3.3,0.9-4.7c0.6-1.4,1.5-2.7,2.5-3.7
	s2.3-1.9,3.7-2.5c1.4-0.6,2.9-0.9,4.5-0.9c1.1,0,2.2,0.1,3.3,0.4c1.1,0.3,2.1,0.7,3,1.2l-1.1,1.8c-0.7-0.4-1.5-0.8-2.4-1
	c-0.9-0.2-1.8-0.4-2.7-0.4c-1.3,0-2.5,0.3-3.6,0.8c-1.1,0.5-2.2,1.2-3,2.1c-0.9,0.9-1.6,1.9-2.1,3.1c-0.5,1.2-0.8,2.4-0.8,3.8
	c0,1.3,0.2,2.5,0.7,3.6c0.5,1.1,1.1,2.1,1.9,3c0.8,0.9,1.8,1.5,3,2c1.2,0.5,2.4,0.7,3.9,0.7c0.7,0,1.4-0.1,2.2-0.2
	c0.8-0.2,1.5-0.4,2.2-0.7v-5.7h-4.9V350H175z"/>
<path class="st0" d="M206.2,337.8h2.2v22.5h-2.2V337.8z"/>
<path class="st0" d="M234.6,349.1c0-1.6,0.3-3.1,0.9-4.5c0.6-1.4,1.4-2.6,2.5-3.7c1-1.1,2.3-1.9,3.7-2.5c1.4-0.6,2.9-0.9,4.5-0.9
	c1.6,0,3.1,0.3,4.5,0.9c1.4,0.6,2.6,1.4,3.7,2.5c1,1.1,1.9,2.3,2.5,3.7c0.6,1.4,0.9,2.9,0.9,4.5c0,1.6-0.3,3.1-0.9,4.5
	c-0.6,1.4-1.4,2.6-2.5,3.7c-1,1-2.3,1.9-3.7,2.5c-1.4,0.6-2.9,0.9-4.5,0.9c-1.6,0-3.1-0.3-4.5-0.9c-1.4-0.6-2.6-1.4-3.7-2.5
	s-1.9-2.3-2.5-3.7C234.9,352.2,234.6,350.7,234.6,349.1z M236.7,349.1c0,1.3,0.2,2.5,0.7,3.7c0.5,1.1,1.2,2.1,2,3
	c0.8,0.9,1.8,1.5,3,2c1.1,0.5,2.3,0.7,3.6,0.7c1.3,0,2.5-0.2,3.6-0.7c1.1-0.5,2.1-1.2,3-2c0.9-0.9,1.5-1.9,2-3
	c0.5-1.1,0.7-2.4,0.7-3.7c0-1.3-0.2-2.5-0.7-3.7c-0.5-1.1-1.2-2.2-2-3c-0.9-0.9-1.9-1.5-3-2c-1.1-0.5-2.4-0.7-3.6-0.7
	c-1.3,0-2.5,0.2-3.6,0.7c-1.1,0.5-2.1,1.2-3,2c-0.9,0.9-1.5,1.9-2,3C237,346.6,236.7,347.8,236.7,349.1z"/>
<polygon class="st0" points="67,156.3 223.6,0 156.5,0.1 0.3,156.3 140,296 173.4,262.6 "/>
<polygon class="st0" points="413.7,156.3 274.2,16.7 240.8,50.1 347,156.3 190.6,312.7 257.1,312.9 "/>
<polygon class="st1" points="311.9,157.3 224,157.3 224,180.8 254.5,180.8 224,211.2 241.3,227.8 "/>
<polygon class="st1" points="134.2,156.9 213.6,77.4 180,77.4 100.5,156.9 180,236.4 213.7,236.4 "/>
<path class="st1" d="M143.7,350v1.9H0l0-1.9H143.7z"/>
<path class="st1" d="M415.3,350v1.9H271.6V350H415.3z"/>
</svg>
