<?xml version="1.0" encoding="utf-8"?>
<!-- Generator: Adobe Illustrator 20.1.0, SVG Export Plug-In . SVG Version: 6.00 Build 0)  -->
<svg version="1.1" id="Capa_1" xmlns="http://www.w3.org/2000/svg" xmlns:xlink="http://www.w3.org/1999/xlink" x="0px" y="0px"
	 viewBox="0 0 416.2 403" style="enable-background:new 0 0 416.2 403;" xml:space="preserve">
<style type="text/css">
	.st0{fill:#FFFFFF;}
	.st1{fill:#AFDD22;}
</style>
<path class="st0" d="M131,377.8v21.4c-2.1,1.2-4.4,2.1-7,2.8c-2.6,0.7-5.3,1-8.2,1c-4.2,0-8-0.7-11.4-2.1c-3.4-1.4-6.3-3.3-8.6-5.7
	c-2.4-2.4-4.2-5.2-5.5-8.5c-1.3-3.3-2-6.8-2-10.5c0-4.1,0.7-7.8,2.2-11.2c1.5-3.4,3.5-6.4,6-8.9s5.5-4.5,8.9-5.9
	c3.4-1.4,7-2.1,10.7-2.1c2.6,0,5.2,0.3,7.8,1c2.6,0.7,5,1.6,7,2.9l-2.6,4.2c-1.7-1-3.6-1.8-5.8-2.4c-2.2-0.6-4.4-0.9-6.5-0.9
	c-3.1,0-6,0.6-8.7,1.8c-2.7,1.2-5.1,2.8-7.2,4.9c-2.1,2.1-3.7,4.5-4.9,7.3c-1.2,2.8-1.8,5.8-1.8,8.9c0,3,0.5,5.9,1.6,8.6
	c1.1,2.7,2.6,5.1,4.5,7.1c2,2,4.3,3.6,7.1,4.8c2.8,1.2,5.8,1.8,9.2,1.8c1.7,0,3.4-0.2,5.2-0.6c1.8-0.4,3.6-0.9,5.2-1.7v-13.5h-11.6
	v-4.5H131z"/>
<path class="st0" d="M205.1,348.7h5.2v53.7h-5.2V348.7z"/>
<path class="st0" d="M272.8,375.6c0-3.8,0.7-7.3,2.1-10.6c1.4-3.3,3.4-6.3,5.9-8.8c2.5-2.5,5.4-4.5,8.7-5.9
	c3.3-1.5,6.9-2.2,10.6-2.2s7.3,0.7,10.7,2.2c3.4,1.5,6.3,3.4,8.8,5.9c2.5,2.5,4.4,5.4,5.9,8.8c1.5,3.3,2.2,6.9,2.2,10.6
	c0,3.8-0.7,7.3-2.2,10.6c-1.5,3.3-3.4,6.2-5.9,8.7c-2.5,2.5-5.4,4.4-8.8,5.9c-3.4,1.4-6.9,2.1-10.7,2.1s-7.3-0.7-10.6-2.1
	c-3.3-1.4-6.2-3.4-8.7-5.9s-4.4-5.4-5.9-8.7C273.5,382.9,272.8,379.4,272.8,375.6z M277.9,375.6c0,3.1,0.6,6,1.8,8.8
	c1.2,2.7,2.8,5.1,4.8,7.1c2,2,4.4,3.6,7.1,4.8c2.7,1.2,5.6,1.8,8.6,1.8c3.1,0,6-0.6,8.7-1.8c2.7-1.2,5.1-2.8,7.1-4.8
	c2-2,3.6-4.4,4.8-7.1c1.2-2.7,1.8-5.7,1.8-8.8c0-3.1-0.6-6-1.8-8.8c-1.2-2.7-2.8-5.1-4.8-7.2c-2-2.1-4.4-3.7-7.1-4.9
	c-2.7-1.2-5.6-1.8-8.7-1.8c-3.1,0-6,0.6-8.7,1.8c-2.7,1.2-5,2.8-7.1,4.9c-2,2.1-3.6,4.4-4.8,7.2
	C278.5,369.6,277.9,372.5,277.9,375.6z"/>
<polygon class="st0" points="67.2,157.3 224.8,0 157.2,0.1 0,157.3 140.6,298 174.2,264.4 "/>
<polygon class="st0" points="416.2,157.3 275.7,16.8 242.1,50.4 349,157.3 191.5,314.8 258.6,315 "/>
<polygon class="st1" points="313.7,159.3 221.6,159.3 221.6,182 254.1,182 224.3,212.6 242.1,229.8 "/>
<polygon class="st1" points="134.8,157.9 214.7,78 180.9,77.9 100.8,157.9 180.9,238 214.8,237.9 "/>
<path class="st1" d="M56.5,377.8v4.5H0l0-4.5H56.5z"/>
<path class="st1" d="M416.2,377.8v4.5H361v-4.5H416.2z"/>
</svg>
